<svg xmlns="http://www.w3.org/2000/svg" viewBox="0 0 1920 760" preserveAspectRatio="xMidYMid slice">
  <defs>
    <linearGradient id="sky" x1="0" y1="0" x2="0" y2="1">
      <stop offset="0" stop-color="#daa55e"/>
      <stop offset="0.42" stop-color="#5d6870"/>
      <stop offset="1" stop-color="#151f24"/>
    </linearGradient>
    <radialGradient id="sun" cx="72%" cy="20%" r="25%">
      <stop offset="0" stop-color="#fff2b2"/>
      <stop offset="0.24" stop-color="#e6aa45"/>
      <stop offset="1" stop-color="transparent"/>
    </radialGradient>
  </defs>
  <rect width="1920" height="760" fill="url(#sky)"/>
  <rect width="1920" height="760" fill="url(#sun)" opacity=".9"/>
  <path d="M0 320 C210 240 375 290 540 238 C730 180 885 248 1055 207 C1265 156 1430 246 1662 211 C1818 188 1892 206 1920 202 L1920 760 L0 760 Z" fill="#1d252a" opacity=".8"/>
  <path d="M0 420 C250 342 445 398 660 346 C890 288 1064 370 1282 318 C1500 268 1700 350 1920 303 L1920 760 L0 760 Z" fill="#0e171c" opacity=".86"/>
  <rect y="536" width="1920" height="56" fill="#282b2c"/>
  <rect y="566" width="1920" height="7" fill="#e5dfc1" opacity=".75"/>
  <g transform="translate(1110 300) scale(1.9)" stroke="#050607" stroke-width="10" fill="none" stroke-linecap="round" stroke-linejoin="round" opacity=".92">
    <circle cx="60" cy="135" r="48"/>
    <circle cx="210" cy="135" r="48"/>
    <path d="M60 135 L120 65 L165 135 L210 135 L145 55 L120 65"/>
    <path d="M145 55 L185 33"/>
    <path d="M108 25 L150 25"/>
    <path d="M160 135 L185 33"/>
    <path d="M120 65 L80 135"/>
  </g>
</svg>